<svg xmlns="http://www.w3.org/2000/svg" viewBox="0 0 192 192">
  <rect width="192" height="192" rx="42" fill="#141312"/>
  <circle cx="96" cy="96" r="72" fill="#f7f4ef" opacity="0.06"/>
  <circle cx="96" cy="96" r="40" fill="none" stroke="#f7f4ef" stroke-width="8" opacity="0.22"/>
  <path d="M48 96c13-20 29-30 48-30s35 10 48 30c-13 20-29 30-48 30S61 116 48 96Z" fill="none" stroke="#f7f4ef" stroke-width="7" stroke-linecap="round" stroke-linejoin="round"/>
  <path d="M72 96c7-10 15-15 24-15s17 5 24 15c-7 10-15 15-24 15s-17-5-24-15Z" fill="none" stroke="#cf845e" stroke-width="7" stroke-linecap="round" stroke-linejoin="round"/>
  <circle cx="96" cy="96" r="9" fill="#cf845e"/>
  <circle cx="47" cy="49" r="3" fill="#f7f4ef" opacity="0.34"/>
  <circle cx="144" cy="46" r="2.4" fill="#f7f4ef" opacity="0.28"/>
  <circle cx="38" cy="137" r="2.4" fill="#f7f4ef" opacity="0.28"/>
  <circle cx="152" cy="142" r="3.4" fill="#f7f4ef" opacity="0.34"/>
</svg>
